<?xml version="1.0" standalone="no"?>
<!DOCTYPE svg PUBLIC "-//W3C//DTD SVG 20010904//EN"
 "http://www.w3.org/TR/2001/REC-SVG-20010904/DTD/svg10.dtd">
<svg version="1.0" xmlns="http://www.w3.org/2000/svg"
 width="700.000000pt" height="700.000000pt" viewBox="0 0 700.000000 700.000000"
 preserveAspectRatio="xMidYMid meet">
<metadata>
Created by potrace 1.14, written by Peter Selinger 2001-2017
</metadata>
<g transform="translate(0.000000,700.000000) scale(0.100000,-0.100000)"
fill="#000000" stroke="none">
<path d="M1880 6364 c-39 -7 -106 -44 -150 -82 -115 -97 -215 -333 -235 -553
l-7 -76 -42 -13 c-144 -43 -293 -167 -357 -300 -20 -41 -40 -88 -44 -105 -4
-16 -9 -39 -12 -50 -8 -33 -11 -299 -18 -1600 -13 -2337 -13 -2323 1 -2397 35
-183 179 -356 354 -426 127 -50 -30 -46 2085 -57 2382 -13 2294 -13 2365 3
207 47 369 188 435 378 40 116 35 -148 50 2789 8 1374 10 1302 -57 1442 -44
89 -150 199 -241 248 -97 53 -166 72 -292 79 -38 2 -39 3 -42 41 -22 271 -123
509 -260 614 -280 215 -600 -96 -635 -616 l-2 -33 -123 0 c-110 0 -123 2 -124
18 -1 17 -2 28 -19 144 -35 236 -158 450 -302 525 -44 23 -66 27 -128 28 -84
0 -127 -16 -198 -73 -101 -80 -202 -277 -228 -442 -3 -19 -7 -37 -9 -40 -2 -3
-6 -37 -10 -75 -4 -39 -9 -72 -12 -75 -9 -10 -153 -6 -153 5 -1 22 -12 93 -25
168 -70 381 -300 603 -534 515 -108 -41 -229 -194 -280 -355 -31 -97 -59 -235
-60 -296 l-1 -37 -90 1 c-60 1 -90 5 -90 13 0 13 -17 126 -25 171 -21 111 -79
260 -133 340 -89 133 -225 202 -352 179z"/>
</g>
</svg>
