<?xml version="1.0" standalone="no"?>
<!DOCTYPE svg PUBLIC "-//W3C//DTD SVG 20010904//EN"
 "http://www.w3.org/TR/2001/REC-SVG-20010904/DTD/svg10.dtd">
<svg version="1.0" xmlns="http://www.w3.org/2000/svg"
 width="1024.000000pt" height="1024.000000pt" viewBox="0 0 1024.000000 1024.000000"
 preserveAspectRatio="xMidYMid meet">
<metadata>
Created by potrace 1.14, written by Peter Selinger 2001-2017
</metadata>
<g transform="translate(0.000000,1024.000000) scale(0.100000,-0.100000)"
fill="#000000" stroke="none">
<path d="M2737 10233 c-85 -23 -160 -109 -171 -195 -2 -21 -7 -42 -10 -47 -4
-5 -2 -12 4 -16 6 -4 7 -13 1 -23 -6 -11 -6 -24 0 -34 6 -11 6 -19 -1 -23 -7
-4 -7 -13 0 -26 7 -12 7 -19 1 -19 -7 0 -7 -8 -2 -22 5 -13 5 -32 1 -43 -4
-11 -3 -25 2 -32 5 -7 5 -14 -2 -18 -7 -4 -7 -12 0 -26 7 -12 7 -19 1 -19 -7
0 -7 -8 -2 -22 5 -13 5 -32 1 -43 -4 -11 -3 -25 2 -32 5 -7 5 -14 -2 -18 -7
-4 -7 -12 0 -26 7 -12 7 -19 1 -19 -7 0 -7 -8 -2 -22 5 -13 5 -32 1 -43 -4
-11 -3 -25 2 -32 5 -7 5 -14 -2 -18 -7 -4 -7 -12 0 -26 7 -12 7 -19 1 -19 -7
0 -7 -8 -2 -22 5 -13 5 -32 1 -43 -4 -11 -3 -25 2 -32 5 -7 5 -14 -2 -18 -7
-4 -7 -12 0 -26 7 -12 7 -19 1 -19 -7 0 -7 -8 -2 -22 5 -13 5 -32 1 -43 -4
-11 -3 -25 2 -32 5 -7 5 -14 -2 -18 -7 -4 -7 -12 0 -26 7 -12 7 -19 1 -19 -7
0 -7 -9 -2 -22 5 -13 4 -35 -1 -50 -8 -23 -12 -25 -39 -18 -16 5 -29 5 -29 1
0 -5 -15 -5 -32 -2 -18 4 -48 4 -65 0 -18 -4 -33 -3 -33 1 0 5 -13 5 -29 0
-15 -4 -34 -4 -42 0 -7 5 -20 5 -29 0 -9 -5 -22 -5 -30 0 -8 5 -21 5 -30 0 -9
-5 -22 -5 -30 0 -8 5 -21 5 -30 0 -9 -5 -22 -5 -30 0 -8 5 -21 5 -30 0 -9 -5
-22 -5 -30 0 -8 5 -21 5 -30 0 -9 -5 -22 -5 -30 0 -8 5 -21 5 -30 0 -9 -5 -22
-5 -30 0 -8 5 -21 5 -30 0 -9 -5 -22 -5 -30 0 -8 5 -21 5 -30 0 -9 -5 -22 -5
-30 0 -8 5 -21 5 -30 0 -9 -5 -22 -5 -30 0 -8 5 -21 5 -30 0 -9 -5 -22 -5 -30
0 -8 5 -21 5 -30 0 -9 -5 -22 -5 -29 0 -8 4 -27 4 -42 0 -17 -5 -31 -5 -35 1
-3 5 -11 6 -17 2 -7 -4 -21 -8 -32 -9 -22 -1 -113 -15 -132 -21 -7 -1 -19 -4
-25 -6 -134 -33 -306 -132 -421 -244 -124 -120 -243 -335 -263 -473 -1 -8 -7
-35 -13 -60 -7 -32 -10 -1113 -10 -3670 0 -3952 -4 -3608 44 -3816 9 -41 75
-173 117 -235 59 -87 93 -126 188 -210 86 -76 294 -180 390 -194 14 -2 48 -9
75 -14 33 -7 1287 -10 3665 -10 3713 0 3621 -1 3776 33 51 11 185 71 252 112
95 60 211 170 276 263 54 78 116 198 116 225 0 8 4 17 9 20 5 3 12 20 15 38 3
18 9 44 12 58 3 14 9 52 15 85 11 67 8 7297 -3 7330 -3 11 -11 41 -17 67 -50
218 -202 433 -396 563 -70 46 -103 64 -200 106 -31 13 -126 38 -170 44 -71 11
-87 14 -92 19 -3 3 -15 1 -27 -4 -13 -4 -29 -5 -36 0 -7 4 -26 4 -41 0 -16 -5
-29 -5 -29 0 0 5 -13 5 -30 0 -16 -5 -30 -5 -30 -1 0 5 -18 5 -40 1 -22 -4
-40 -4 -40 1 0 4 -14 4 -30 -1 -17 -5 -30 -5 -30 0 0 5 -13 5 -30 0 -17 -5
-30 -5 -30 0 0 5 -13 5 -30 0 -17 -5 -30 -5 -30 0 0 5 -13 5 -30 0 -16 -5 -30
-5 -30 -1 0 5 -18 5 -40 1 -22 -4 -40 -4 -40 1 0 4 -14 4 -30 -1 -17 -5 -30
-5 -30 0 0 5 -12 5 -27 1 -16 -4 -40 -4 -55 0 -16 4 -28 3 -28 -1 0 -5 -14 -5
-30 0 -17 5 -30 5 -30 1 0 -5 -18 -5 -40 -1 -22 4 -40 4 -40 0 0 -4 -15 -5
-32 -1 -18 4 -48 4 -66 0 -18 -4 -31 -4 -28 -2 3 3 1 16 -4 29 -6 15 -6 24 0
24 6 0 6 9 0 25 -6 16 -6 25 0 25 6 0 6 9 0 25 -5 14 -6 25 -2 25 4 0 7 13 7
29 0 16 -3 27 -7 24 -5 -2 -4 7 2 21 6 16 6 26 0 26 -6 0 -6 9 0 25 6 15 6 26
0 30 -7 4 -6 13 0 25 7 13 7 21 0 25 -6 4 -7 12 -1 23 5 9 5 26 0 39 -5 13 -5
23 -1 23 4 0 7 11 7 25 0 14 -3 25 -7 25 -4 0 -3 11 2 25 6 16 6 25 0 25 -6 0
-6 9 0 25 6 17 6 25 -1 25 -6 0 -7 4 -4 10 9 15 12 89 3 84 -4 -3 -4 6 2 20 6
16 6 26 0 26 -6 0 -6 9 0 25 6 15 6 26 0 30 -7 4 -6 13 0 25 7 13 7 21 0 25
-6 4 -7 12 -1 23 5 9 5 26 0 39 -5 14 -5 23 1 23 5 0 5 12 0 30 -5 18 -5 30 0
30 6 0 5 11 0 26 -7 18 -7 23 2 18 6 -4 8 -3 5 3 -4 6 -9 28 -13 49 -9 57 -27
95 -64 132 -69 69 -54 67 -575 67 -510 0 -482 3 -553 -57 -38 -32 -73 -96 -78
-143 -1 -20 -6 -40 -9 -45 -3 -6 -2 -10 4 -10 7 0 7 -8 1 -25 -6 -15 -6 -27 0
-30 6 -3 6 -15 0 -30 -5 -14 -5 -27 0 -30 5 -3 5 -18 0 -35 -5 -17 -5 -30 0
-30 4 0 4 -16 0 -35 -4 -19 -4 -37 0 -40 5 -3 5 -19 0 -35 -5 -18 -5 -30 0
-30 6 0 6 -10 0 -25 -6 -15 -6 -27 0 -30 6 -3 6 -15 0 -30 -5 -14 -5 -27 0
-30 5 -3 5 -18 0 -35 -5 -17 -5 -30 0 -30 4 0 4 -16 0 -35 -4 -19 -4 -37 0
-40 5 -3 5 -19 0 -35 -5 -18 -5 -30 0 -30 6 0 6 -10 0 -25 -6 -15 -6 -27 0
-30 6 -3 6 -15 0 -30 -5 -14 -5 -27 0 -30 5 -3 5 -18 0 -35 -5 -17 -5 -30 0
-30 4 0 4 -16 0 -35 -4 -19 -4 -37 0 -40 5 -3 5 -19 0 -35 -5 -18 -5 -30 0
-30 6 0 6 -10 0 -24 -5 -13 -6 -27 -2 -30 3 -4 -20 -5 -51 -4 -31 2 -57 0 -57
-4 0 -3 -13 -3 -30 2 -17 5 -30 5 -30 0 0 -5 -13 -5 -30 0 -17 5 -30 5 -30 0
0 -5 -13 -5 -30 0 -17 5 -30 5 -30 0 0 -5 -13 -5 -30 0 -17 5 -30 5 -30 0 0
-5 -13 -5 -30 0 -17 5 -30 5 -30 0 0 -5 -13 -5 -30 0 -17 5 -30 5 -30 0 0 -5
-13 -5 -30 0 -17 5 -30 5 -30 0 0 -5 -13 -5 -30 0 -17 5 -30 5 -30 0 0 -5 -13
-5 -30 0 -17 5 -30 5 -30 0 0 -5 -13 -5 -30 0 -17 5 -30 5 -30 0 0 -5 -13 -5
-30 0 -17 5 -30 5 -30 0 0 -5 -13 -5 -30 0 -17 5 -30 5 -30 0 0 -5 -13 -5 -30
0 -17 5 -30 5 -30 0 0 -5 -13 -5 -30 0 -17 5 -30 5 -30 0 0 -5 -13 -5 -30 0
-17 5 -30 5 -30 0 0 -5 -13 -5 -30 0 -17 5 -30 5 -30 0 0 -5 -13 -5 -29 0 -15
4 -34 4 -42 0 -7 -5 -20 -5 -29 0 -9 5 -22 5 -30 0 -8 -5 -18 -6 -24 -3 -13 9
-57 9 -88 1 -16 -3 -28 -3 -28 2 0 5 -13 5 -30 0 -16 -5 -30 -5 -30 -1 0 5
-18 5 -40 1 -22 -4 -40 -4 -40 1 0 4 -14 4 -30 -1 -17 -5 -30 -5 -30 0 0 5
-13 5 -30 0 -17 -5 -30 -5 -30 0 0 5 -13 5 -30 0 -17 -5 -30 -5 -30 0 0 5 -13
5 -30 0 -16 -5 -30 -5 -30 -1 0 5 -18 5 -40 1 -22 -4 -40 -4 -40 1 0 4 -13 4
-30 -1 -17 -5 -30 -5 -30 0 0 5 -13 5 -30 0 -17 -5 -30 -5 -30 0 0 5 -13 5
-30 0 -17 -5 -30 -5 -30 0 0 5 -13 5 -30 0 -16 -5 -30 -5 -30 -1 0 5 -18 5
-40 1 -22 -4 -40 -4 -40 1 0 4 -13 4 -30 -1 -17 -5 -30 -5 -30 0 0 5 -13 5
-30 0 -17 -5 -30 -5 -30 0 0 5 -13 5 -30 0 -17 -5 -30 -5 -30 0 0 5 -13 5 -30
0 -16 -5 -30 -5 -30 -1 0 5 -18 5 -40 1 -22 -4 -40 -4 -40 1 0 4 -13 4 -30 -1
-17 -5 -30 -5 -30 0 0 5 -14 5 -31 0 -22 -7 -29 -6 -26 3 2 7 0 22 -4 34 -5
13 -4 25 1 28 6 3 6 15 0 29 -5 13 -6 27 -3 30 8 8 9 76 1 76 -4 0 -3 14 2 30
5 17 5 30 0 30 -5 0 -5 13 0 30 5 17 5 30 0 30 -5 0 -5 13 0 30 5 17 5 30 0
30 -5 0 -5 13 0 30 5 17 5 30 0 30 -5 0 -5 13 0 30 5 17 5 30 0 30 -5 0 -5 13
0 30 5 17 5 30 0 30 -5 0 -5 13 0 30 5 17 5 30 0 30 -5 0 -5 13 0 30 5 17 5
30 0 30 -5 0 -5 13 0 30 5 17 5 30 0 30 -5 0 -5 13 0 30 5 17 5 30 0 30 -5 0
-5 13 0 30 5 17 5 30 0 30 -5 0 -5 13 0 30 5 17 5 30 0 30 -5 0 -5 13 0 30 5
18 5 30 0 30 -6 0 -6 10 0 25 5 13 6 27 1 29 -4 3 -7 15 -6 28 4 48 -62 168
-92 168 -7 0 -13 3 -13 8 0 4 -12 14 -28 22 -23 12 -102 15 -487 16 -253 1
-468 0 -478 -3z m-1077 -3195 c0 8 128 7 137 -1 3 -4 14 -2 24 3 11 7 20 7 24
0 3 -6 15 -6 29 0 14 5 27 5 33 -1 6 -6 19 -6 36 0 17 7 27 7 27 1 0 -6 9 -6
25 0 15 6 26 6 30 0 4 -7 13 -6 25 0 12 6 21 7 25 0 4 -6 15 -6 30 0 16 6 25
6 25 0 0 -6 9 -6 25 0 15 6 26 6 30 0 4 -7 13 -6 25 0 12 6 21 7 25 0 4 -6 15
-6 30 0 16 6 25 6 25 0 0 -6 9 -6 25 0 15 6 26 6 30 0 4 -7 13 -6 25 0 12 6
21 7 25 0 4 -6 15 -6 30 0 16 6 25 6 25 0 0 -6 9 -6 25 0 15 6 26 6 30 0 4 -7
13 -6 25 0 12 6 21 7 25 0 4 -6 15 -6 30 0 16 6 25 6 25 0 0 -6 9 -6 25 0 15
6 26 6 30 0 4 -7 13 -6 25 0 12 6 21 7 25 0 4 -6 15 -6 30 0 16 6 25 6 25 0 0
-6 9 -6 25 0 15 6 26 6 30 0 4 -7 13 -6 25 0 12 6 21 7 25 0 4 -6 15 -6 30 0
16 6 25 6 25 0 0 -6 9 -6 25 0 15 6 26 6 30 0 4 -7 13 -6 25 0 12 6 21 7 25 0
4 -6 15 -6 30 0 16 6 25 6 25 0 0 -6 9 -6 25 0 15 6 26 6 30 -1 4 -5 11 -6 17
-3 16 10 50 11 76 2 12 -4 22 -4 22 0 0 8 124 7 138 -2 6 -4 13 -2 17 4 4 7
12 7 25 0 12 -6 21 -7 25 0 4 6 15 6 30 0 14 -5 25 -6 25 -2 0 4 52 7 115 7
63 0 115 -3 115 -7 0 -4 11 -3 25 2 15 6 27 6 30 0 3 -5 15 -6 28 -1 13 5 30
5 39 0 11 -6 19 -5 23 1 4 7 12 7 25 0 12 -6 21 -7 25 0 4 6 15 6 30 0 14 -5
25 -6 25 -2 0 4 52 7 115 7 63 0 115 -3 115 -7 0 -4 11 -3 25 2 14 5 27 5 30
0 3 -5 18 -5 35 0 18 5 32 5 35 -1 4 -5 14 -5 25 1 12 6 21 7 25 0 3 -6 15 -6
29 0 14 5 27 5 33 -1 6 -6 19 -6 36 0 17 7 27 7 27 1 0 -6 9 -6 25 0 15 6 26
6 30 0 4 -7 13 -6 25 0 12 6 21 7 25 0 4 -6 15 -6 30 0 16 6 25 6 25 0 0 -6 9
-6 25 0 15 6 26 6 30 0 4 -7 13 -6 25 0 12 6 21 7 25 0 4 -6 15 -6 30 0 16 6
25 6 25 0 0 -6 9 -6 25 0 15 6 26 6 30 0 4 -7 13 -6 25 0 12 6 21 7 25 0 4 -6
15 -6 30 0 16 6 25 6 25 0 0 -6 9 -6 25 0 15 6 26 6 30 0 4 -6 13 -7 23 -1 9
5 19 10 22 12 3 1 15 -3 27 -9 14 -8 24 -9 28 -2 4 6 12 7 23 1 9 -5 26 -5 39
0 14 5 23 5 23 -1 0 -6 9 -6 23 -1 13 5 30 5 39 0 11 -6 19 -5 23 1 4 7 12 7
25 0 12 -6 21 -7 25 0 4 6 15 6 30 0 14 -5 25 -6 25 -2 0 8 108 8 116 -1 4 -4
15 -2 25 3 12 7 20 7 24 0 4 -6 13 -7 24 -1 9 5 23 6 31 1 7 -4 24 -4 36 0 14
6 26 5 29 -1 4 -6 13 -6 23 0 9 5 26 5 39 0 14 -5 23 -5 23 1 0 6 9 6 23 1 13
-5 30 -5 37 -1 8 5 22 4 31 -1 11 -6 20 -5 24 1 4 6 15 6 30 0 14 -5 25 -6 25
-2 0 4 14 7 30 7 17 0 30 -2 30 -5 0 -7 70 -4 77 4 3 3 14 1 24 -4 11 -7 20
-7 24 0 4 6 15 6 30 0 14 -5 25 -6 25 -2 0 4 14 7 30 7 17 0 30 -3 30 -7 0 -4
11 -3 25 2 16 6 25 6 25 0 0 -6 9 -6 24 0 15 5 27 5 35 -3 8 -8 11 -8 11 1 0
9 5 10 19 2 13 -7 22 -7 26 0 4 6 12 7 23 1 9 -5 26 -5 39 0 14 5 23 5 23 -1
0 -6 9 -6 23 -1 13 5 30 5 39 0 11 -6 19 -5 23 1 4 7 12 7 25 0 12 -6 21 -7
25 0 4 6 15 6 30 0 14 -5 25 -6 25 -2 0 8 108 8 116 -1 4 -4 15 -2 25 3 12 7
20 7 24 0 4 -6 13 -7 24 -1 9 5 23 6 31 1 7 -4 24 -4 36 0 14 6 26 5 29 -1 4
-6 13 -6 23 0 9 5 26 5 39 0 14 -5 23 -5 23 1 0 6 9 6 23 1 13 -5 30 -5 37 -1
8 5 22 4 31 -1 11 -6 20 -5 24 1 4 6 15 6 30 0 14 -5 25 -6 25 -2 0 4 14 7 30
7 17 0 30 -2 30 -5 0 -7 70 -4 77 4 3 3 14 1 24 -4 11 -7 20 -7 24 0 4 6 15 6
30 0 14 -5 25 -6 25 -2 0 4 14 7 30 7 17 0 30 -3 30 -7 0 -4 11 -3 25 2 16 6
25 6 25 0 0 -6 9 -6 25 0 16 6 26 6 31 -1 4 -7 10 -7 16 -1 7 7 19 7 34 2 13
-5 24 -6 24 -2 0 4 14 7 30 7 17 0 30 -3 30 -7 0 -4 6 -5 13 -2 23 8 97 10 97
2 0 -4 11 -3 25 2 15 6 26 6 30 -1 4 -6 13 -6 23 0 9 5 26 5 39 0 14 -5 23 -5
23 1 0 6 9 6 23 1 13 -5 30 -5 37 -1 8 5 22 4 31 -1 11 -6 20 -5 24 1 4 6 15
6 30 0 14 -5 25 -6 25 -2 0 4 14 7 30 7 17 0 30 -3 30 -7 0 -4 11 -3 25 2 16
6 25 6 25 0 0 -6 9 -6 25 0 16 6 25 6 25 0 0 -6 9 -6 25 0 15 6 26 6 30 0 4
-7 13 -6 25 0 13 7 21 7 25 0 4 -6 13 -7 24 -1 9 5 23 6 31 1 7 -4 24 -4 36 0
13 5 26 5 29 1 3 -5 15 -7 26 -4 19 5 20 3 11 -14 -6 -11 -7 -25 -2 -33 5 -8
5 -21 0 -30 -5 -9 -4 -23 1 -32 6 -10 6 -19 0 -23 -6 -3 -8 -11 -5 -18 6 -18
10 -117 4 -117 -3 0 -4 -24 -2 -52 1 -29 3 -59 2 -65 0 -7 0 -20 0 -28 0 -8 0
-22 0 -30 0 -8 0 -22 0 -30 0 -8 0 -22 0 -30 0 -8 0 -22 0 -30 0 -8 0 -22 0
-30 0 -8 0 -22 0 -30 0 -8 0 -22 0 -30 0 -8 0 -22 0 -30 0 -8 0 -22 0 -30 0
-8 0 -22 0 -30 0 -8 0 -22 0 -30 0 -8 0 -22 0 -30 0 -8 0 -22 0 -30 0 -8 0
-22 0 -30 0 -8 0 -22 0 -30 0 -8 0 -21 0 -27 0 -7 1 -26 3 -43 1 -16 -1 -40
-5 -52 -4 -12 -3 -25 2 -28 5 -3 5 -18 0 -35 -5 -17 -5 -30 0 -30 4 0 4 -16 0
-35 -4 -19 -4 -37 0 -40 5 -3 5 -19 0 -35 -5 -17 -5 -30 0 -30 5 0 7 -7 4 -15
-9 -22 -10 -105 -2 -105 4 0 3 -13 -2 -30 -5 -16 -6 -30 -2 -30 8 0 7 -68 -1
-76 -3 -3 -2 -17 3 -30 6 -14 6 -24 0 -24 -5 0 -5 -12 0 -30 5 -17 5 -30 0
-30 -5 0 -5 -13 0 -30 5 -17 5 -30 0 -30 -5 0 -5 -13 0 -30 5 -17 5 -30 0 -30
-5 0 -5 -12 -1 -28 5 -15 5 -37 0 -49 -5 -13 -4 -25 1 -28 6 -4 7 -13 1 -24
-5 -9 -6 -23 -2 -29 4 -7 4 -35 1 -62 -4 -28 -3 -50 1 -50 4 0 4 -13 -1 -30
-5 -16 -6 -30 -2 -30 8 0 7 -68 -1 -76 -3 -3 -2 -17 3 -30 6 -14 6 -24 0 -24
-5 0 -5 -12 0 -30 5 -17 5 -30 0 -30 -5 0 -5 -13 0 -30 5 -17 5 -30 0 -30 -5
0 -5 -13 0 -30 5 -17 5 -30 0 -30 -5 0 -5 -12 -1 -28 5 -15 5 -37 0 -49 -5
-13 -4 -25 1 -28 7 -4 7 -13 0 -24 -5 -10 -7 -21 -3 -25 9 -9 10 -58 1 -83 -4
-12 -3 -25 2 -28 5 -3 5 -18 0 -35 -5 -17 -5 -30 0 -30 4 0 4 -16 0 -35 -4
-19 -4 -37 0 -40 5 -3 5 -19 0 -35 -5 -18 -5 -30 0 -30 5 0 6 -10 2 -22 -4
-13 -6 -38 -4 -55 1 -18 2 -40 2 -48 0 -8 0 -22 0 -30 0 -8 0 -22 0 -30 0 -8
0 -22 0 -30 0 -8 0 -22 0 -30 0 -8 0 -22 0 -30 0 -8 0 -22 0 -30 0 -8 0 -22 0
-30 0 -8 0 -22 0 -30 0 -8 0 -22 0 -30 0 -8 0 -22 0 -30 0 -8 0 -22 0 -30 0
-8 0 -22 0 -30 0 -8 0 -22 0 -30 0 -8 0 -22 0 -30 0 -8 0 -22 0 -30 0 -8 0
-22 0 -30 0 -8 0 -21 0 -27 0 -7 1 -26 3 -43 1 -16 -1 -40 -5 -52 -4 -12 -3
-25 2 -28 5 -3 5 -18 0 -35 -5 -17 -5 -30 0 -30 4 0 4 -16 0 -35 -4 -19 -4
-37 0 -40 5 -3 5 -19 0 -35 -5 -17 -5 -30 0 -30 5 0 7 -7 4 -15 -9 -22 -10
-105 -2 -105 4 0 3 -13 -2 -30 -5 -16 -6 -30 -2 -30 8 0 7 -68 -1 -76 -3 -3
-2 -17 3 -30 6 -14 6 -24 0 -24 -5 0 -5 -12 0 -30 5 -17 5 -30 0 -30 -5 0 -5
-13 0 -30 5 -17 5 -30 0 -30 -5 0 -5 -13 0 -30 5 -17 5 -30 0 -30 -5 0 -5 -12
-1 -28 5 -15 5 -37 0 -49 -5 -13 -4 -25 1 -28 6 -4 7 -13 1 -24 -5 -9 -6 -23
-2 -29 4 -7 4 -35 1 -62 -4 -28 -3 -50 1 -50 4 0 4 -13 -1 -30 -5 -16 -6 -30
-2 -30 8 0 7 -68 -1 -76 -3 -3 -2 -17 3 -30 6 -14 6 -24 0 -24 -5 0 -5 -12 0
-30 5 -17 5 -30 0 -30 -5 0 -5 -13 0 -30 5 -17 5 -30 0 -30 -5 0 -5 -13 0 -30
5 -17 5 -30 0 -30 -5 0 -5 -12 -1 -28 5 -15 5 -37 0 -49 -5 -13 -4 -25 1 -28
7 -4 7 -13 0 -24 -5 -10 -7 -21 -3 -25 9 -9 10 -58 1 -83 -4 -12 -3 -25 2 -28
5 -3 5 -18 0 -35 -5 -17 -5 -30 0 -30 4 0 4 -16 0 -35 -4 -19 -4 -37 0 -40 5
-3 5 -19 0 -35 -5 -18 -5 -30 0 -30 5 0 6 -10 2 -22 -4 -13 -6 -38 -4 -55 1
-18 2 -40 2 -48 0 -8 0 -22 0 -30 0 -8 0 -22 0 -30 0 -8 0 -22 0 -30 0 -8 0
-22 0 -30 0 -8 0 -22 0 -30 0 -8 0 -22 0 -30 0 -8 0 -21 0 -27 0 -7 1 -59 2
-116 2 -56 1 -102 -2 -102 -3 0 -5 -17 -4 -37 1 -46 -44 -100 -92 -109 -49 -9
-104 -10 -104 -2 0 3 -13 3 -30 -2 -17 -5 -30 -5 -30 -1 0 4 -22 5 -50 1 -27
-3 -55 -3 -62 1 -6 4 -22 3 -35 -2 -13 -5 -23 -5 -23 1 0 5 -12 5 -28 1 -15
-5 -37 -5 -49 0 -13 5 -25 4 -28 -1 -3 -6 -15 -6 -30 0 -15 6 -25 6 -25 0 0
-5 -12 -5 -30 0 -17 5 -32 5 -35 0 -3 -5 -16 -5 -30 0 -15 6 -27 6 -30 0 -4
-7 -13 -7 -24 0 -10 5 -21 7 -24 4 -8 -9 -77 -11 -77 -2 0 3 -14 3 -30 -2 -17
-5 -30 -5 -30 0 0 4 -15 4 -34 0 -19 -4 -40 -4 -47 1 -7 4 -17 5 -22 2 -11 -7
-77 -10 -77 -3 0 7 -69 4 -76 -3 -3 -3 -17 -2 -30 3 -14 6 -26 6 -29 0 -3 -6
-15 -6 -30 0 -15 6 -27 6 -30 0 -3 -6 -15 -6 -30 0 -15 6 -27 6 -30 0 -3 -6
-15 -6 -30 0 -15 6 -25 6 -25 0 0 -5 -12 -5 -28 -1 -15 5 -37 5 -49 0 -13 -5
-25 -4 -28 1 -4 6 -13 7 -24 1 -9 -5 -22 -6 -28 -3 -14 9 -77 7 -92 -2 -5 -4
-12 -2 -16 3 -3 6 -15 7 -29 1 -12 -4 -29 -4 -36 0 -8 5 -18 6 -24 3 -13 -9
-126 -9 -126 -1 0 4 -10 4 -22 0 -26 -9 -75 -8 -84 1 -3 3 -17 2 -30 -3 -14
-6 -26 -6 -29 0 -3 6 -15 6 -30 0 -15 -6 -27 -6 -30 0 -3 6 -15 6 -30 0 -15
-6 -27 -6 -30 0 -4 6 -13 7 -24 1 -9 -5 -23 -6 -31 -1 -7 4 -24 4 -36 0 -14
-6 -26 -5 -29 0 -3 6 -15 6 -30 0 -15 -6 -27 -6 -30 0 -3 6 -15 6 -30 0 -15
-6 -27 -6 -30 0 -4 6 -13 7 -24 1 -10 -6 -23 -6 -31 -1 -8 5 -21 5 -30 0 -9
-5 -21 -5 -27 -2 -14 9 -77 7 -92 -2 -5 -4 -12 -2 -16 3 -3 6 -15 7 -29 1 -12
-4 -29 -4 -36 0 -8 5 -18 6 -24 3 -13 -9 -126 -9 -126 -1 0 4 -12 3 -26 -2
-16 -7 -32 -7 -43 0 -10 5 -21 7 -24 4 -7 -8 -77 -11 -77 -4 0 7 -69 4 -76 -3
-3 -3 -17 -2 -30 3 -14 6 -26 6 -29 0 -3 -6 -15 -6 -30 0 -15 6 -27 6 -30 0
-3 -6 -15 -6 -30 0 -15 6 -27 6 -30 0 -3 -6 -15 -6 -30 0 -15 6 -25 6 -25 0 0
-5 -12 -5 -28 -1 -15 5 -37 5 -49 0 -13 -5 -25 -4 -28 1 -4 6 -13 7 -24 1 -9
-5 -23 -6 -30 -2 -7 5 -30 5 -51 1 -21 -4 -44 -4 -51 1 -7 4 -23 3 -36 -2 -13
-5 -23 -5 -23 1 0 5 -12 5 -28 1 -15 -5 -37 -5 -49 0 -13 5 -25 4 -28 -1 -3
-6 -15 -6 -30 0 -15 6 -25 6 -25 0 0 -5 -12 -5 -30 0 -17 5 -32 5 -35 0 -3 -5
-16 -5 -30 0 -15 6 -27 6 -30 0 -4 -7 -13 -7 -24 0 -10 5 -21 7 -24 4 -8 -9
-77 -11 -77 -2 0 3 -13 3 -30 -2 -16 -5 -30 -5 -30 -1 0 4 -22 5 -50 1 -27 -3
-55 -3 -62 1 -6 4 -22 3 -35 -2 -13 -5 -23 -5 -23 1 0 5 -12 5 -28 1 -15 -5
-37 -5 -49 0 -13 5 -25 4 -28 -1 -3 -6 -15 -6 -30 0 -15 6 -25 6 -25 0 0 -5
-12 -5 -30 0 -17 5 -32 5 -35 0 -3 -5 -16 -5 -30 0 -15 6 -27 6 -30 0 -4 -7
-13 -7 -24 0 -10 5 -21 7 -24 4 -8 -9 -77 -11 -77 -2 0 3 -13 3 -30 -2 -16 -5
-30 -5 -30 0 0 4 -15 4 -34 0 -19 -4 -40 -4 -47 1 -7 4 -17 5 -22 2 -11 -7
-77 -10 -77 -3 0 7 -69 4 -76 -3 -3 -3 -17 -2 -30 3 -14 6 -26 6 -29 0 -3 -6
-15 -6 -30 0 -15 6 -27 6 -30 0 -3 -6 -15 -6 -30 0 -15 6 -27 6 -30 0 -3 -6
-15 -6 -30 0 -15 6 -25 6 -25 0 0 -5 -12 -5 -28 -1 -15 5 -37 5 -49 0 -13 -5
-25 -4 -28 1 -4 6 -13 7 -24 1 -9 -5 -22 -6 -28 -3 -14 9 -77 7 -92 -2 -5 -4
-12 -2 -16 3 -3 6 -15 7 -29 1 -12 -4 -29 -4 -36 0 -8 5 -18 6 -24 3 -13 -9
-126 -9 -126 -1 0 4 -10 4 -22 0 -26 -9 -75 -8 -84 1 -3 3 -17 2 -30 -3 -14
-6 -26 -6 -29 0 -3 6 -15 6 -30 0 -15 -6 -27 -6 -30 0 -3 6 -15 6 -30 0 -15
-6 -27 -6 -30 0 -4 6 -13 7 -24 1 -9 -5 -23 -6 -31 -1 -7 4 -24 4 -36 0 -14
-6 -26 -5 -29 0 -3 6 -15 6 -30 0 -15 -6 -27 -6 -30 0 -3 6 -15 6 -30 0 -15
-6 -27 -6 -30 0 -4 6 -13 7 -24 1 -10 -6 -23 -6 -31 -1 -8 5 -21 5 -30 0 -9
-5 -21 -5 -27 -2 -14 9 -77 7 -92 -2 -5 -4 -12 -2 -16 3 -3 6 -15 7 -29 1 -12
-4 -29 -4 -36 0 -8 5 -18 6 -24 3 -13 -9 -126 -9 -126 -1 0 4 -12 3 -26 -2
-16 -7 -32 -7 -43 0 -10 5 -21 7 -24 4 -9 -9 -77 -10 -77 -2 0 4 -11 3 -24 -2
-13 -5 -27 -6 -31 -2 -3 3 -14 7 -23 7 -9 1 -27 2 -38 3 -12 1 -32 13 -46 27
-27 26 -51 92 -37 100 4 3 6 11 3 18 -7 20 -10 117 -2 117 4 0 3 12 -1 28 -5
15 -5 37 0 49 4 12 4 25 -1 28 -5 3 -5 18 0 35 5 17 5 30 0 30 -4 0 -4 16 0
35 4 19 4 37 0 40 -5 3 -5 19 0 35 5 18 5 30 0 30 -5 0 -6 10 -2 23 4 12 6 37
4 55 -1 17 -2 39 -2 47 0 8 0 22 0 30 0 8 0 22 0 30 0 8 0 22 0 30 0 8 0 22 0
30 0 8 0 22 0 30 0 8 0 22 0 30 0 8 0 22 0 30 0 8 0 22 0 30 0 8 0 22 0 30 0
8 0 22 0 30 0 8 0 22 0 30 0 8 0 22 0 30 0 8 0 22 0 30 0 8 0 22 0 30 0 8 0
22 0 30 0 8 0 22 0 30 0 8 0 21 0 28 0 6 -1 26 -3 42 -1 17 1 40 5 52 4 12 3
25 -2 28 -5 3 -5 18 0 35 5 17 5 30 0 30 -4 0 -4 16 0 35 4 19 4 37 0 40 -5 3
-5 19 0 35 5 18 5 30 0 30 -5 0 -6 10 -2 22 8 26 8 80 -1 95 -3 5 -2 15 3 23
5 8 5 21 0 30 -5 9 -5 22 0 29 4 8 4 27 0 42 -5 16 -5 29 0 29 5 0 5 13 0 30
-5 17 -5 30 0 30 5 0 5 13 0 30 -5 17 -5 30 0 30 5 0 5 13 0 30 -5 17 -5 30 0
30 5 0 5 13 0 30 -5 17 -6 30 -2 30 4 0 7 16 7 35 0 19 -3 35 -7 35 -4 0 -3
14 2 30 5 17 5 30 1 30 -4 0 -5 22 -1 50 3 27 3 55 -1 62 -4 7 -4 19 1 27 4 9
4 23 0 31 -5 9 -5 22 0 29 4 8 4 27 0 42 -5 16 -5 29 0 29 5 0 5 13 0 30 -5
17 -5 30 0 30 5 0 5 13 0 30 -5 17 -5 30 0 30 5 0 5 13 0 30 -5 17 -5 30 0 30
5 0 5 13 0 30 -5 17 -6 30 -2 30 4 0 7 16 7 35 0 19 -3 35 -7 35 -4 0 -3 14 2
30 5 17 5 30 1 30 -4 0 -4 27 -1 60 3 33 3 60 -1 60 -4 0 -4 14 1 30 5 17 6
30 2 30 -8 0 -7 68 1 76 3 3 2 17 -3 30 -6 14 -6 24 0 24 5 0 5 12 0 30 -5 17
-5 30 0 30 5 0 5 13 0 30 -5 17 -5 30 0 30 5 0 5 13 0 30 -5 17 -5 30 0 30 5
0 5 12 1 28 -5 15 -5 37 0 49 5 13 4 25 -1 28 -7 4 -7 13 0 24 5 10 7 21 3 25
-9 9 -10 58 -1 83 4 12 3 25 -2 28 -5 3 -5 18 0 35 5 17 5 30 0 30 -4 0 -4 16
0 35 4 19 4 37 0 40 -5 3 -5 19 0 35 5 18 5 30 0 30 -5 0 -6 10 -2 23 4 12 6
37 4 55 -1 17 -2 39 -2 47 0 8 0 22 0 30 0 8 0 22 0 30 0 8 0 22 0 30 0 8 0
22 0 30 0 8 0 22 0 30 0 8 0 22 0 30 0 8 0 22 0 30 0 8 0 22 0 30 0 8 0 22 0
30 0 8 0 22 0 30 0 8 0 22 0 30 0 8 0 22 0 30 0 8 0 22 0 30 0 8 0 22 0 30 0
8 0 22 0 30 0 8 0 22 0 30 0 8 0 21 0 28 0 6 -1 26 -3 42 -1 17 1 40 5 52 4
12 3 25 -2 28 -5 3 -5 18 0 35 5 17 5 30 0 30 -4 0 -4 16 0 35 4 19 4 37 0 40
-5 3 -5 19 0 35 5 17 5 30 0 30 -5 0 -7 7 -4 15 9 22 10 105 2 105 -4 0 -3 14
2 30 5 17 6 30 2 30 -8 0 -7 68 1 76 3 3 2 17 -3 30 -6 14 -6 24 0 24 5 0 5
12 0 30 -5 17 -5 30 0 30 5 0 5 13 0 30 -5 17 -5 30 0 30 5 0 5 13 0 30 -5 17
-5 30 0 30 5 0 5 12 1 28 -5 15 -5 37 0 49 5 13 4 25 -1 28 -6 4 -7 13 -1 24
5 9 6 23 2 30 -5 7 -5 30 -1 51 4 21 4 44 -1 51 -4 7 -4 20 1 28 4 9 4 23 0
31 -5 9 -5 22 0 29 4 8 4 27 0 42 -5 16 -5 29 0 29 5 0 5 13 0 30 -5 17 -5 30
0 30 5 0 5 12 1 28 -5 15 -5 37 0 49 5 13 4 25 -1 28 -6 4 -7 13 -1 24 5 9 6
23 1 31 -4 7 -5 23 0 34 4 12 4 31 -1 44 -5 12 -5 22 1 22 5 0 5 13 0 30 -5
18 -5 32 1 36 5 3 7 10 3 15 -3 6 -3 16 0 24 4 11 11 13 31 5 14 -5 25 -6 25
-2z"/>
<path d="M2820 5760 c0 -3 -17 -4 -37 -4 -21 1 -50 -5 -65 -13 -16 -7 -28 -11
-28 -8 0 6 -45 -32 -76 -65 -28 -29 -51 -93 -50 -138 1 -17 -1 -32 -4 -32 -3
0 -5 -24 -5 -54 0 -30 3 -52 7 -49 5 2 4 -6 -1 -19 -5 -14 -5 -31 0 -40 6 -10
6 -19 0 -23 -7 -4 -7 -15 -1 -30 6 -16 6 -25 0 -25 -6 0 -6 -9 0 -25 6 -16 6
-25 0 -25 -6 0 -6 -9 0 -25 5 -14 6 -25 2 -25 -9 0 -8 -63 2 -78 3 -6 2 -13
-4 -17 -7 -4 -7 -12 0 -25 6 -12 7 -21 0 -25 -6 -4 -6 -15 0 -30 6 -16 6 -25
0 -25 -6 0 -6 -9 0 -25 5 -14 6 -25 1 -25 -5 0 -5 -16 -1 -35 4 -19 5 -35 1
-35 -6 0 -5 -85 3 -150 6 -61 64 -160 93 -160 7 0 13 -3 13 -8 0 -14 61 -34
122 -39 100 -8 148 -8 148 -2 0 3 20 3 45 -1 25 -4 48 -3 51 2 3 4 9 6 13 4
10 -6 44 -7 240 -6 24 0 47 3 52 6 5 3 9 0 9 -6 0 -6 4 -9 9 -6 8 6 59 7 161
6 30 -1 57 -1 60 0 3 1 23 2 45 4 100 6 191 89 209 189 2 15 7 30 10 35 2 4 1
14 -4 22 -5 8 -5 21 0 30 5 9 5 22 0 30 -5 8 -5 21 0 30 5 9 5 22 0 30 -5 8
-5 21 0 30 5 9 5 22 0 30 -5 8 -5 21 0 30 5 9 5 22 0 30 -5 8 -5 21 0 30 5 9
5 22 0 30 -5 8 -5 21 0 30 5 9 5 22 0 30 -5 8 -5 21 0 30 5 9 5 22 0 30 -5 8
-5 21 0 30 5 9 5 22 0 30 -5 8 -5 21 0 30 5 9 5 22 0 30 -5 8 -5 21 0 30 5 9
5 22 0 30 -5 8 -5 21 0 30 5 9 5 22 0 30 -5 8 -5 21 0 30 5 9 5 22 0 30 -4 7
-4 24 0 36 5 13 6 26 1 28 -4 3 -7 15 -6 28 4 48 -62 168 -92 168 -7 0 -13 3
-13 8 0 14 -61 34 -122 39 -100 8 -148 8 -148 2 0 -3 -20 -3 -45 1 -25 4 -48
3 -51 -2 -3 -4 -9 -6 -13 -4 -10 6 -44 7 -240 6 -24 0 -47 -3 -52 -6 -5 -3 -9
0 -9 6 0 6 -4 9 -9 6 -10 -6 -80 -8 -164 -4 -31 2 -57 1 -57 -2z"/>
<path d="M4797 5763 c-2 -2 -28 -4 -58 -4 -30 0 -70 -5 -89 -11 -41 -13 -121
-68 -115 -78 3 -5 -1 -10 -9 -13 -16 -6 -50 -102 -42 -116 4 -5 2 -12 -3 -15
-4 -3 -5 -24 -1 -46 4 -22 4 -43 0 -45 -4 -3 -4 -21 0 -40 4 -19 4 -35 0 -35
-4 0 -4 -18 0 -40 4 -22 4 -40 0 -40 -4 0 -4 -20 0 -45 4 -25 4 -45 1 -45 -7
0 -4 -118 4 -137 2 -7 1 -13 -4 -13 -4 0 -5 -20 -1 -45 4 -25 4 -45 1 -45 -7
0 -6 -99 2 -106 2 -3 1 -20 -3 -39 -4 -19 -6 -36 -3 -38 2 -3 6 -29 7 -58 2
-30 10 -67 17 -84 20 -44 61 -95 76 -95 7 0 13 -3 13 -8 0 -13 57 -33 107 -38
67 -6 152 -6 163 1 6 3 10 1 10 -5 0 -6 4 -9 9 -5 6 3 36 5 68 5 32 0 67 0 78
0 39 1 70 -1 90 -4 11 -1 34 0 52 5 18 4 35 3 38 -1 3 -4 21 -4 40 0 19 4 37
4 40 0 3 -4 21 -4 40 0 19 4 37 4 40 0 3 -4 21 -4 40 0 19 4 37 4 40 -1 3 -4
11 -6 18 -4 7 3 38 7 69 9 118 8 209 90 223 199 3 22 7 42 9 44 2 2 0 19 -4
37 -4 19 -4 39 0 46 4 7 4 27 0 46 -4 18 -5 35 -2 38 4 5 4 39 1 141 0 6 0 40
1 77 1 36 -1 71 -5 77 -3 6 -2 11 3 11 5 0 6 17 2 40 -4 22 -4 40 0 40 4 0 4
18 0 40 -4 22 -4 42 0 45 4 3 4 23 0 45 -4 22 -4 43 1 46 4 2 6 10 4 17 -2 7
-6 35 -8 62 -3 28 -12 67 -20 85 -30 70 -112 131 -183 135 -19 1 -37 5 -40 8
-3 2 -21 1 -40 -3 -19 -4 -36 -4 -39 0 -3 4 -21 4 -40 0 -19 -4 -37 -4 -40 0
-3 4 -21 4 -40 0 -19 -4 -37 -4 -40 0 -3 4 -21 4 -40 0 -19 -4 -37 -4 -40 0
-3 4 -20 5 -37 1 -18 -4 -42 -6 -53 -5 -35 4 -78 5 -138 4 -32 0 -62 2 -67 5
-5 3 -11 1 -14 -4 -3 -4 -24 -5 -46 -1 -21 4 -41 6 -43 3z"/>
<path d="M6720 5760 c0 -3 -35 -5 -78 -6 -46 -1 -87 -7 -103 -15 -72 -40 -127
-114 -135 -182 -6 -47 -6 -108 0 -114 2 -3 1 -16 -4 -29 -5 -13 -6 -26 0 -29
5 -3 5 -18 0 -35 -5 -17 -5 -30 0 -30 4 0 4 -16 0 -35 -4 -19 -4 -37 0 -40 5
-3 5 -19 0 -35 -5 -18 -5 -30 0 -30 6 0 6 -10 0 -25 -6 -15 -6 -27 0 -30 6 -3
6 -15 0 -30 -5 -14 -5 -27 0 -30 5 -3 5 -18 0 -35 -5 -17 -5 -30 0 -30 4 0 4
-16 0 -35 -4 -19 -4 -37 0 -40 5 -3 5 -19 0 -35 -5 -19 -5 -30 1 -30 6 0 7 -5
3 -11 -8 -13 -8 -97 0 -160 14 -111 97 -192 210 -205 60 -7 186 -10 186 -4 0
3 24 4 52 3 29 -1 64 -2 78 -2 14 0 39 -1 55 -1 17 0 39 -2 50 -4 11 -1 34 0
52 5 18 4 35 3 38 -1 3 -4 21 -4 40 0 19 4 37 4 40 0 3 -4 21 -4 40 0 19 4 37
4 40 0 3 -4 21 -4 40 0 19 4 37 4 40 -1 3 -4 11 -6 18 -4 7 3 38 7 69 9 32 2
76 13 99 25 60 32 114 101 122 156 1 13 6 27 9 30 3 4 2 20 -2 36 -5 17 -5 29
0 29 6 0 5 11 0 26 -6 14 -7 23 -2 21 4 -3 7 19 7 49 0 30 -4 54 -8 54 -5 0
-5 5 -1 11 8 14 9 118 0 126 -3 3 -1 13 4 22 5 10 5 23 0 30 -4 8 -4 27 0 42
5 17 5 31 -1 35 -7 4 -6 10 0 18 6 7 6 17 1 26 -5 8 -6 18 -3 24 9 14 9 67 0
73 -4 2 -3 13 3 23 7 13 7 21 0 25 -6 4 -7 13 -1 24 6 10 6 23 1 31 -5 8 -5
21 1 31 6 12 5 20 -1 24 -8 5 -8 11 -1 19 6 7 8 15 5 18 -3 4 -7 21 -9 40 -2
18 -4 34 -5 36 -3 2 -7 17 -9 30 -1 9 -25 39 -62 80 -28 29 -83 55 -125 57
-19 1 -37 5 -40 8 -3 2 -21 1 -40 -3 -19 -4 -36 -4 -39 0 -3 4 -21 4 -40 0
-19 -4 -37 -4 -40 0 -3 4 -21 4 -40 0 -19 -4 -37 -4 -40 0 -3 4 -21 4 -40 0
-19 -4 -37 -4 -40 1 -3 4 -11 6 -19 3 -17 -7 -146 -10 -146 -4 0 3 -52 5 -115
5 -63 0 -115 -2 -115 -5z"/>
<path d="M2766 3838 c-9 -5 -16 -6 -16 -3 0 3 -13 -1 -30 -10 -16 -9 -30 -13
-30 -10 0 6 -45 -32 -76 -65 -28 -29 -51 -93 -50 -138 1 -17 -1 -32 -4 -32 -3
0 -5 -24 -5 -54 0 -30 3 -52 7 -49 5 2 4 -6 -1 -19 -5 -14 -5 -31 0 -40 6 -10
6 -19 0 -23 -7 -4 -7 -15 -1 -30 6 -16 6 -25 0 -25 -6 0 -6 -9 0 -25 6 -16 6
-25 0 -25 -6 0 -6 -9 0 -25 5 -14 6 -25 2 -25 -9 0 -8 -63 2 -78 3 -6 2 -13
-4 -17 -7 -4 -7 -12 0 -25 6 -12 7 -21 0 -25 -6 -4 -6 -15 0 -30 6 -16 6 -25
0 -25 -6 0 -6 -9 0 -25 5 -14 6 -25 1 -25 -5 0 -5 -16 -1 -35 4 -19 5 -35 1
-35 -6 0 -5 -85 3 -150 6 -61 64 -160 93 -160 7 0 13 -3 13 -8 0 -12 52 -31
104 -37 28 -4 54 -9 59 -12 6 -3 7 -1 3 5 -5 9 -1 9 16 3 14 -5 31 -5 40 0 11
6 19 5 23 -1 4 -7 12 -7 24 0 10 5 21 6 25 3 9 -10 56 -10 56 0 0 4 4 5 10 2
14 -9 93 -10 107 -2 6 4 14 3 18 -3 4 -7 12 -7 24 0 10 5 21 6 25 3 9 -10 56
-10 56 0 0 4 5 5 10 2 15 -9 104 -10 118 -1 7 4 12 3 12 -3 0 -7 8 -7 25 -1
14 5 25 6 25 2 0 -4 11 -7 25 -7 14 0 25 3 25 7 0 4 14 3 30 -2 18 -5 30 -5
30 0 0 6 10 6 24 0 13 -5 26 -6 29 -4 3 3 19 8 36 10 93 15 171 100 187 204 7
46 7 101 -1 108 -2 2 0 15 5 28 5 13 6 26 0 29 -5 3 -5 18 0 35 5 17 5 30 0
30 -4 0 -4 16 0 35 4 19 4 37 0 40 -5 3 -5 19 0 35 5 18 5 30 0 30 -6 0 -6 10
0 25 6 15 6 27 0 30 -6 3 -6 15 0 30 5 14 5 27 0 30 -5 3 -5 18 0 35 5 17 5
30 0 30 -4 0 -4 16 0 35 4 19 4 37 0 40 -5 3 -5 19 0 35 5 19 5 30 -1 30 -6 0
-7 5 -3 11 8 13 8 97 0 160 -14 108 -97 192 -205 205 -19 3 -37 6 -39 8 -1 2
-19 0 -38 -4 -18 -4 -34 -4 -34 0 0 5 -13 5 -30 0 -17 -5 -30 -5 -30 0 0 5
-13 5 -30 0 -17 -5 -30 -5 -30 0 0 5 -13 5 -30 0 -17 -5 -30 -5 -30 0 0 5 -13
5 -30 0 -17 -5 -30 -5 -30 0 0 5 -13 5 -30 0 -17 -5 -30 -5 -30 0 0 5 -13 5
-30 0 -17 -5 -30 -5 -30 0 0 5 -13 5 -30 0 -17 -5 -30 -5 -30 0 0 5 -13 5 -30
0 -17 -5 -30 -5 -30 0 0 5 -13 5 -30 0 -17 -5 -30 -5 -30 0 0 5 -13 5 -30 0
-16 -5 -30 -6 -30 -2 0 4 -16 7 -35 7 -19 0 -35 -3 -35 -6 0 -4 -15 -3 -34 1
-18 4 -41 3 -50 -2z"/>
<path d="M4720 3840 c-8 -5 -18 -6 -22 -4 -23 14 -175 -67 -163 -86 3 -5 -1
-10 -9 -13 -15 -6 -51 -102 -42 -115 2 -4 1 -14 -3 -21 -5 -7 -5 -28 -1 -47 4
-19 4 -34 0 -34 -4 0 -4 -18 0 -40 4 -22 4 -40 0 -40 -4 0 -4 -18 0 -40 4 -22
4 -42 0 -45 -4 -3 -4 -23 0 -45 4 -22 5 -40 1 -40 -7 0 -4 -117 3 -137 3 -7 2
-13 -2 -13 -4 0 -6 -44 -4 -97 3 -87 3 -153 0 -172 0 -3 0 -8 1 -11 1 -3 3
-27 5 -55 4 -63 25 -111 67 -154 32 -31 75 -56 92 -53 4 1 7 -2 7 -6 0 -4 12
-8 28 -7 15 1 39 -2 55 -6 16 -5 25 -4 22 2 -4 5 3 5 17 0 14 -5 31 -5 40 0
11 6 19 5 23 -1 4 -7 12 -7 24 0 10 5 21 6 25 3 9 -9 56 -10 56 -1 0 4 6 5 13
2 24 -9 97 -10 97 -1 0 4 8 4 18 -1 18 -8 80 -7 89 2 3 2 16 1 29 -4 14 -6 26
-6 29 1 4 5 12 6 18 2 6 -4 21 -7 32 -7 11 0 26 3 32 7 6 4 14 3 18 -3 4 -7
12 -7 26 0 12 7 19 7 19 1 0 -7 9 -7 26 -1 14 6 23 7 21 2 -6 -9 56 -8 71 2 6
3 13 2 17 -4 4 -6 11 -8 16 -4 5 3 26 8 47 10 96 12 183 96 198 193 6 42 5
101 -2 113 -3 4 -1 8 4 8 5 0 6 20 2 45 -4 25 -4 45 -1 45 3 0 6 32 6 70 0 39
-2 70 -5 70 -6 0 -3 129 4 146 3 8 1 16 -3 19 -5 3 -5 21 -1 40 4 19 4 37 0
40 -4 3 -4 21 0 40 4 19 4 37 0 40 -4 3 -4 21 0 40 4 19 4 37 0 40 -4 3 -4 20
0 39 4 19 5 37 3 40 -3 3 -7 21 -8 40 -6 98 -97 188 -205 203 -61 8 -100 9
-100 1 0 -3 -13 -3 -30 2 -17 5 -30 5 -30 0 0 -5 -13 -5 -30 0 -17 5 -30 5
-30 0 0 -5 -13 -5 -29 0 -15 4 -34 4 -42 0 -7 -5 -20 -5 -29 0 -8 4 -22 4 -31
0 -8 -5 -21 -5 -28 -1 -7 5 -30 5 -51 1 -21 -4 -44 -3 -52 1 -8 4 -20 4 -28
-1 -8 -5 -21 -5 -30 0 -9 5 -22 5 -29 0 -8 -4 -27 -4 -42 0 -16 5 -29 5 -29 0
0 -5 -13 -5 -30 0 -17 5 -30 5 -30 0 0 -5 -13 -5 -29 0 -15 4 -34 4 -42 0 -7
-5 -20 -5 -29 0 -9 5 -22 5 -30 0z"/>
<path d="M6650 3847 c-3 -3 -22 -8 -43 -11 -84 -13 -150 -62 -182 -135 -9 -20
-20 -44 -25 -53 -6 -10 -6 -19 -1 -23 6 -3 6 -18 1 -35 -5 -17 -5 -30 0 -30 5
0 5 -13 0 -29 -4 -15 -4 -34 0 -42 5 -7 5 -20 0 -29 -5 -9 -5 -22 0 -30 5 -8
5 -21 0 -30 -5 -9 -5 -22 0 -30 5 -8 5 -21 0 -30 -5 -9 -5 -22 0 -30 5 -8 5
-21 0 -30 -5 -9 -5 -22 0 -30 5 -8 5 -21 0 -30 -5 -9 -5 -22 0 -30 5 -8 5 -21
0 -30 -5 -9 -5 -22 0 -30 5 -8 5 -21 0 -30 -5 -9 -5 -22 0 -30 5 -8 5 -21 0
-30 -5 -9 -5 -22 0 -30 5 -8 5 -21 0 -30 -5 -9 -5 -22 0 -30 5 -8 5 -21 0 -30
-5 -9 -5 -22 0 -30 5 -8 5 -21 0 -31 -5 -9 -7 -19 -4 -22 3 -3 7 -27 8 -54 2
-26 10 -64 19 -83 29 -67 104 -126 171 -134 21 -3 41 -7 44 -10 3 -3 11 -1 18
5 7 5 15 6 18 1 5 -8 74 -7 83 2 3 3 16 1 29 -4 14 -6 26 -6 29 1 4 5 12 6 18
2 15 -9 49 -9 64 0 6 4 14 3 18 -3 4 -7 12 -7 26 0 12 7 19 7 19 1 0 -7 8 -7
23 -2 12 5 31 5 42 1 11 -4 29 -4 40 0 11 4 30 4 42 -1 13 -5 25 -4 28 2 4 5
12 6 18 2 6 -4 21 -7 32 -7 11 0 26 3 32 7 6 4 14 3 18 -3 4 -7 12 -7 26 0 12
7 19 7 19 1 0 -7 9 -7 26 -1 14 6 23 7 21 2 -6 -9 56 -8 71 2 6 3 13 2 17 -4
4 -6 11 -8 16 -4 5 3 26 8 47 10 90 11 184 97 195 179 1 13 6 27 9 30 3 4 2
20 -2 36 -5 17 -5 29 0 29 6 0 5 11 0 26 -6 14 -7 23 -2 21 4 -3 7 19 7 49 0
30 -4 54 -8 54 -5 0 -5 4 -2 10 9 15 12 89 3 84 -4 -3 -4 6 2 20 6 16 6 26 0
26 -6 0 -6 9 0 25 6 15 6 26 0 30 -7 4 -6 13 0 25 7 13 7 21 0 25 -6 4 -7 12
-1 23 5 9 5 26 0 39 -5 13 -5 23 -1 23 4 0 7 11 7 25 0 14 -3 25 -7 25 -4 0
-3 11 2 25 6 16 6 25 0 25 -6 0 -6 9 0 25 6 16 6 25 0 25 -5 0 -6 10 -2 23 18
55 -13 237 -40 237 -5 0 -8 6 -8 13 0 30 -120 96 -168 92 -13 -1 -25 2 -28 6
-2 5 -16 4 -29 -1 -15 -6 -25 -6 -25 0 0 5 -12 5 -30 0 -17 -5 -30 -5 -30 0 0
5 -13 5 -30 0 -17 -5 -30 -5 -30 0 0 5 -13 5 -30 0 -17 -5 -30 -5 -30 0 0 5
-13 5 -30 0 -17 -5 -30 -5 -30 0 0 5 -13 5 -30 0 -17 -5 -30 -5 -30 0 0 5 -13
5 -30 0 -17 -5 -30 -5 -30 0 0 5 -13 5 -30 0 -17 -5 -30 -5 -30 0 0 5 -13 5
-30 0 -17 -5 -30 -5 -30 0 0 5 -13 5 -30 0 -17 -5 -30 -5 -30 0 0 5 -13 5 -30
0 -17 -5 -30 -5 -30 0 0 5 -13 5 -30 0 -17 -5 -30 -5 -30 0 0 5 -13 5 -29 0
-19 -5 -31 -5 -33 1 -2 6 -6 8 -8 6z"/>
</g>
</svg>
