<?xml version="1.0" standalone="no"?>
<!DOCTYPE svg PUBLIC "-//W3C//DTD SVG 20010904//EN"
 "http://www.w3.org/TR/2001/REC-SVG-20010904/DTD/svg10.dtd">
<svg version="1.0" xmlns="http://www.w3.org/2000/svg"
 width="540.000000pt" height="540.000000pt" viewBox="0 0 540.000000 540.000000"
 preserveAspectRatio="xMidYMid meet">
<metadata>
Created by potrace 1.14, written by Peter Selinger 2001-2017
</metadata>
<g transform="translate(0.000000,540.000000) scale(0.100000,-0.100000)"
fill="#000000" stroke="none">
<path d="M1380 5383 c-61 -21 -141 -74 -190 -125 -39 -41 -107 -165 -108 -198
-3 -47 -9 -100 -13 -104 -2 -2 -60 -6 -129 -7 -261 -5 -409 -68 -591 -249
-127 -127 -203 -247 -244 -386 -9 -32 -20 -68 -23 -79 -3 -11 -8 -790 -9
-1730 l-4 -1711 31 -89 c95 -272 270 -481 497 -594 100 -50 191 -78 323 -99
62 -10 3422 -9 3542 1 397 33 723 305 848 706 l32 102 -5 1662 c-3 914 -7
1676 -10 1692 -3 17 -8 45 -12 64 -17 99 -88 256 -159 355 -64 90 -190 209
-251 237 -11 5 -40 20 -64 34 -104 59 -203 80 -393 84 -62 1 -114 3 -115 5 -1
1 -5 20 -8 42 -13 81 -16 98 -23 108 -4 6 -7 13 -7 16 -3 19 -18 50 -25 50 -4
0 -10 10 -14 23 -7 31 -94 119 -147 150 -172 99 -389 66 -526 -82 -36 -38 -90
-139 -97 -181 -3 -14 -5 -25 -6 -25 -1 0 -3 -20 -5 -45 -1 -25 -3 -49 -4 -53
-1 -9 -1526 -6 -1534 3 -3 3 -7 19 -10 35 -14 86 -22 114 -44 162 -38 82 -113
157 -198 199 -66 33 -82 36 -167 39 -64 2 -108 -2 -138 -12z m206 -337 c24
-21 37 -42 40 -66 8 -50 6 -622 -1 -683 -10 -76 -56 -117 -130 -117 -50 0 -90
26 -111 72 -15 35 -18 75 -18 346 0 321 5 393 26 420 54 69 134 80 194 28z
m2379 18 c65 -26 68 -45 68 -474 0 -311 -6 -356 -49 -385 -65 -42 -183 -17
-200 43 -14 49 -15 65 -16 357 0 304 4 370 27 415 26 51 104 71 170 44z
m-2894 -456 c0 -7 2 -105 4 -217 3 -196 5 -207 30 -268 15 -35 31 -63 36 -63
5 0 9 -7 9 -15 0 -8 5 -15 10 -15 6 0 10 -5 10 -11 0 -18 68 -78 125 -110 237
-134 526 -9 615 266 9 26 14 106 14 235 l2 195 772 3 c614 2 772 0 773 -10 1
-7 3 -103 4 -212 l4 -200 37 -75 c25 -52 58 -95 105 -143 38 -37 72 -67 76
-67 5 1 26 -6 48 -16 103 -45 226 -40 340 16 93 45 140 94 205 214 l32 59 3
176 c2 96 4 196 4 221 l1 45 60 -2 c33 -1 77 -5 98 -8 218 -31 406 -206 486
-452 16 -48 17 -176 17 -1555 1 -827 -2 -1542 -5 -1589 -16 -209 -78 -341
-228 -485 -64 -61 -172 -125 -247 -145 -23 -6 -101 -14 -174 -17 -168 -8
-3201 -8 -3322 0 -207 13 -389 131 -505 327 -60 102 -79 170 -87 322 -9 171
-9 2787 0 2978 7 150 15 194 50 270 97 211 308 349 550 358 32 2 47 -2 48 -10z"/>
<path d="M2364 3879 c-102 -13 -186 -75 -249 -182 -29 -51 -35 -91 -39 -272
l-2 -100 -89 -3 c-50 -1 -238 -4 -420 -6 -287 -3 -335 -5 -370 -21 -147 -65
-265 -211 -282 -350 -13 -112 -8 -307 10 -383 22 -89 114 -211 202 -267 93
-59 126 -64 479 -70 141 -2 253 -8 258 -13 5 -5 12 -46 14 -91 4 -77 3 -82
-18 -90 -26 -10 -565 -6 -618 4 -19 3 -48 8 -64 10 -55 7 -168 68 -188 100 -4
7 -22 24 -40 37 l-33 26 1 -487 c1 -267 4 -517 8 -555 19 -189 154 -347 336
-392 71 -18 142 -19 1470 -19 767 0 1404 4 1415 8 11 5 22 8 25 8 23 1 133 73
181 120 85 82 129 177 135 296 7 141 11 1023 4 1023 -3 0 -28 -23 -54 -50 -45
-47 -166 -117 -206 -118 -8 -1 -46 -4 -85 -8 -93 -10 -601 -11 -611 -2 -12 13
-11 127 2 158 11 24 19 30 46 31 18 0 76 2 128 4 52 3 176 6 276 9 161 3 186
6 235 27 66 28 69 30 138 99 31 30 67 78 81 105 14 28 27 52 30 55 13 13 20
87 23 233 4 178 -4 236 -47 321 -42 83 -63 108 -136 163 -79 59 -134 74 -275
78 -153 5 -317 7 -330 4 -5 -1 -14 -1 -19 0 -5 1 -73 2 -150 1 -173 -2 -188
-1 -194 5 -3 3 -6 49 -8 102 -4 143 -12 192 -39 251 -40 86 -144 175 -235 199
-34 9 -632 11 -696 2z m580 -311 c61 -13 84 -57 88 -164 l3 -79 -30 -2 c-62
-5 -237 -3 -245 2 -5 3 -11 1 -15 -5 -4 -6 -11 -8 -16 -5 -5 4 -73 6 -151 5
-172 -2 -199 -1 -208 5 -11 7 -3 140 10 180 14 42 31 57 78 65 57 10 438 8
486 -2z m-129 -758 c194 -44 366 -214 418 -413 17 -65 20 -195 6 -259 -12 -51
-67 -163 -100 -204 -43 -52 -112 -115 -153 -142 -23 -14 -41 -24 -41 -23 0 2
-23 -9 -51 -23 -27 -14 -59 -25 -70 -26 -10 0 -63 -3 -116 -5 -71 -3 -110 0
-150 12 -29 9 -57 17 -63 18 -31 7 -128 75 -176 124 -58 60 -129 169 -129 200
0 9 -4 21 -9 27 -24 26 -35 205 -18 279 36 150 127 282 249 358 75 47 123 66
203 80 78 15 127 14 200 -3z m-1208 -955 c15 -11 17 -30 17 -129 0 -150 2
-148 -142 -153 -118 -5 -141 3 -143 50 -9 163 2 230 39 241 38 10 212 3 229
-9z m512 -188 c36 -38 68 -72 69 -78 5 -11 -233 -8 -245 4 -14 14 -8 243 6
261 12 14 19 7 59 -51 25 -38 75 -99 111 -136z m1352 149 c6 -150 1 -207 -16
-220 -12 -8 -60 -13 -144 -15 l-126 -2 77 78 c43 43 100 108 128 145 58 77 79
81 81 14z m580 33 c19 -19 22 -41 21 -159 0 -89 -1 -90 -33 -104 -42 -17 -198
-21 -232 -5 -30 13 -30 13 -30 158 0 80 1 85 27 108 26 22 36 24 128 22 83 -1
104 -5 119 -20z m-2486 -534 c22 -3 44 -10 49 -15 11 -11 16 -199 5 -227 -7
-20 -15 -22 -129 -22 -151 0 -155 3 -154 104 2 108 4 129 13 143 4 7 37 15 77
19 38 3 71 7 72 9 2 1 9 1 15 -1 7 -2 30 -7 52 -10z m1180 3 c95 0 99 -4 99
-137 0 -84 -3 -114 -13 -120 -8 -5 -64 -9 -126 -10 -151 -2 -158 3 -159 120 0
114 14 142 74 149 25 3 49 4 54 2 4 -3 37 -4 71 -4z m626 -1 c45 -1 74 -6 81
-14 17 -21 16 -232 -2 -243 -8 -5 -69 -9 -136 -9 -97 0 -125 3 -135 15 -8 10
-13 50 -13 115 1 114 8 129 70 136 21 2 40 6 43 8 2 3 8 2 13 -1 5 -3 40 -6
79 -7z m584 1 c22 1 54 -1 72 -3 29 -5 33 -10 38 -48 12 -80 11 -156 -2 -188
l-13 -31 -126 4 c-101 2 -128 6 -137 19 -19 25 -15 205 4 224 16 17 98 35 114
26 5 -3 28 -4 50 -3z m-1773 -4 c32 -5 39 -11 46 -37 10 -35 7 -205 -3 -216
-9 -8 -272 -8 -280 1 -4 4 -8 55 -9 113 -1 137 5 144 127 144 45 0 99 -2 119
-5z"/>
<path d="M2660 2712 c-67 -30 -72 -54 -74 -325 -2 -214 -2 -213 54 -247 20
-12 66 -15 225 -16 133 0 203 3 210 11 37 40 48 58 55 90 8 35 -2 55 -55 110
-6 6 -65 12 -135 14 -68 1 -127 4 -129 7 -3 3 -6 60 -7 127 -3 172 -11 197
-71 222 -38 16 -50 17 -73 7z"/>
</g>
</svg>
