<svg xmlns="http://www.w3.org/2000/svg" version="1.0" preserveAspectRatio="xMidYMid meet" viewBox="248.5 239.01 527 539.99">

<g transform="translate(0.000000,1024.000000) scale(0.100000,-0.100000)" fill="#000000" stroke="none">
<path d="M3805 7837 c-184 -62 -314 -226 -315 -399 l0 -38 -131 0 c-152 0 -253 -21 -363 -76 -105 -53 -153 -89 -251 -188 -120 -122 -194 -254 -242 -427 -17 -60 -18 -171 -18 -1764 l0 -1700 39 -113 c49 -144 120 -262 220 -369 166 -177 354 -271 609 -303 53 -6 682 -10 1777 -10 1820 0 1764 -1 1950 50 147 41 310 145 416 265 118 133 191 263 233 414 l26 96 -2 1660 c-1 1626 -2 1662 -22 1752 -70 317 -293 578 -578 673 -90 31 -110 33 -254 38 l-156 4 -6 63 c-9 120 -94 253 -205 324 -128 81 -315 81 -442 1 -121 -77 -200 -214 -200 -347 l0 -43 -769 0 c-725 0 -770 1 -775 18 -2 9 -7 42 -11 73 -14 129 -114 262 -241 321 -56 26 -81 31 -158 34 -58 3 -105 -1 -131 -9z m181 -326 c63 -39 65 -52 62 -444 -3 -317 -5 -356 -21 -380 -37 -57 -133 -78 -185 -40 -60 44 -62 56 -62 425 0 349 2 373 43 417 42 44 111 54 163 22z m2400 0 c62 -38 64 -52 64 -436 0 -375 -1 -380 -56 -424 -35 -27 -107 -28 -150 -2 -61 37 -64 56 -63 393 1 356 5 407 39 444 45 47 112 58 166 25z m-2894 -663 l3 -223 38 -77 c69 -138 177 -217 325 -240 194 -30 395 99 460 295 20 60 22 88 22 262 l0 195 774 0 775 0 3 -212 3 -213 36 -75 c89 -186 257 -281 445 -251 143 22 256 107 322 240 l37 75 5 220 5 221 83 -2 c105 -2 198 -30 281 -83 127 -82 220 -202 269 -344 l27 -81 3 -1480 c1 -856 -1 -1537 -7 -1615 -14 -204 -70 -329 -212 -471 -60 -61 -93 -85 -160 -117 -151 -72 -13 -67 -1914 -67 -1613 0 -1724 1 -1784 18 -97 27 -179 70 -254 134 -83 72 -140 145 -184 241 -66 141 -63 51 -63 1755 0 1715 -3 1630 65 1772 100 208 305 338 542 344 l51 1 4 -222z"/>
<path d="M4762 6329 c-101 -20 -192 -95 -241 -198 -24 -51 -26 -68 -29 -208 l-3 -152 -417 -3 -417 -3 -68 -32 c-125 -59 -218 -170 -252 -298 -17 -69 -21 -301 -5 -386 23 -125 109 -247 220 -312 90 -53 140 -59 442 -61 170 -1 281 -5 287 -11 5 -5 11 -48 13 -94 l3 -85 -40 -9 c-22 -5 -168 -6 -325 -4 -370 7 -420 20 -547 140 l-53 50 0 -524 c0 -567 1 -574 56 -686 37 -76 128 -166 203 -202 38 -18 94 -34 144 -41 59 -8 460 -10 1442 -8 l1360 3 57 22 c137 51 239 154 291 291 21 55 22 73 25 607 l3 550 -49 -55 c-56 -63 -121 -102 -208 -125 -88 -24 -683 -35 -704 -13 -19 18 -12 160 8 180 10 10 86 14 315 18 279 5 306 7 354 26 112 46 189 122 246 241 32 68 32 68 35 252 3 151 1 196 -13 248 -31 113 -119 223 -220 275 -86 45 -120 48 -531 48 l-392 0 -4 143 c-5 157 -16 196 -75 278 -18 26 -56 62 -85 82 -93 63 -124 67 -472 66 -171 -1 -330 -5 -354 -10z m607 -312 c58 -20 75 -55 79 -158 l4 -89 -336 0 -336 0 0 83 c0 100 20 146 71 164 22 8 110 12 259 12 149 0 237 -4 259 -12z m-99 -767 c162 -47 320 -206 372 -375 31 -97 31 -247 1 -327 -65 -176 -208 -318 -371 -368 -81 -25 -225 -27 -303 -4 -117 35 -207 96 -277 187 -85 110 -125 221 -125 347 -1 282 213 525 493 560 71 9 129 3 210 -20z m-1249 -940 c17 -10 19 -22 19 -134 0 -102 -3 -126 -16 -137 -11 -9 -53 -15 -126 -18 -148 -5 -148 -4 -148 142 0 100 2 113 22 134 20 21 30 23 125 23 58 0 113 -5 124 -10z m399 -56 c17 -31 69 -94 114 -140 l83 -84 -122 0 c-102 0 -125 3 -136 17 -17 20 -14 240 3 260 14 18 21 11 58 -53z m1458 54 c8 -8 12 -51 12 -129 0 -94 -3 -121 -16 -133 -12 -13 -40 -16 -143 -16 l-128 0 87 88 c48 48 104 113 124 145 39 60 45 64 64 45z m588 -2 c16 -12 20 -29 22 -116 2 -55 1 -111 -2 -124 -9 -35 -47 -46 -158 -46 -138 0 -138 0 -138 142 0 102 1 110 25 133 22 23 31 25 128 25 73 0 109 -4 123 -14z m-2443 -548 c13 -11 17 -33 18 -125 1 -61 -2 -116 -5 -122 -10 -16 -258 -15 -274 1 -19 19 -16 222 4 242 20 21 231 23 257 4z m609 -5 c15 -14 18 -32 18 -123 0 -69 -4 -110 -12 -118 -17 -17 -259 -17 -276 0 -8 8 -12 49 -12 117 0 142 -1 141 148 141 93 0 119 -3 134 -17z m616 5 c8 -8 12 -51 12 -129 0 -97 -3 -118 -16 -123 -9 -3 -69 -6 -134 -6 -111 0 -120 1 -134 22 -22 31 -22 177 -1 218 l16 30 122 0 c82 0 127 -4 135 -12z m620 0 c13 -13 17 -212 6 -242 -5 -13 -27 -16 -138 -16 -89 0 -136 4 -144 12 -8 8 -12 48 -12 113 0 146 -1 145 154 145 81 0 126 -4 134 -12z m602 -4 c18 -21 26 -204 11 -233 -11 -20 -20 -21 -139 -21 -86 0 -132 4 -140 12 -8 8 -12 48 -12 113 0 145 0 145 149 145 95 0 121 -3 131 -16z"/>
<path d="M5058 5154 c-53 -28 -58 -52 -58 -298 l0 -224 30 -26 c42 -34 68 -38 272 -34 l178 3 31 31 c20 21 32 44 36 71 5 36 1 45 -30 79 l-35 39 -131 3 -131 4 0 135 c0 155 -11 192 -65 217 -41 20 -62 20 -97 0z"/>
</g>
</svg>