<svg xmlns="http://www.w3.org/2000/svg" viewBox="0 0 512 512">
  <path fill="#000000" d="M116 116h280c22.1 0 40 17.9 40 40v210c0 22.1-17.9 40-40 40H116c-22.1 0-40-17.9-40-40V156c0-22.1 17.9-40 40-40Z"/>
  <path fill="#000000" d="M150 70c16.6 0 30 13.4 30 30v74c0 16.6-13.4 30-30 30s-30-13.4-30-30v-74c0-16.6 13.4-30 30-30Zm212 0c16.6 0 30 13.4 30 30v74c0 16.6-13.4 30-30 30s-30-13.4-30-30v-74c0-16.6 13.4-30 30-30Z"/>
  <path fill="#000000" fill-rule="evenodd" d="M386 282c-14.3 16.6-22.9 38.2-22.9 61.8 0 44.2 30.2 81.4 71.1 92-17.4 20.2-43.2 33-72.1 33-52.5 0-95-42.5-95-95 0-50.6 39.6-92 89.5-94.8 10.1-.5 19.9.5 29.4 3Z" clip-rule="evenodd"/>
</svg>
